<mxfile host="app.diagrams.net" modified="2024-03-17T18:32:14.611Z" agent="Mozilla/5.0 (Windows NT 10.0; Win64; x64) AppleWebKit/537.36 (KHTML, like Gecko) Chrome/122.0.0.0 Safari/537.36 Edg/122.0.0.0" etag="Hlt7GO2lHXbxoHzWYIB6" version="24.0.7" type="device">
  <diagram name="Page-1" id="03018318-947c-dd8e-b7a3-06fadd420f32">
    <mxGraphModel dx="1447" dy="785" grid="1" gridSize="10" guides="1" tooltips="1" connect="1" arrows="1" fold="1" page="1" pageScale="1" pageWidth="1100" pageHeight="850" background="#ffffff" math="0" shadow="0">
      <root>
        <mxCell id="0" />
        <mxCell id="1" parent="0" />
        <mxCell id="677b7b8949515195-2" value="Giphy" style="whiteSpace=wrap;html=1;rounded=0;shadow=0;labelBackgroundColor=none;strokeWidth=1;fontFamily=Verdana;fontSize=28;align=center;comic=1;" parent="1" vertex="1">
          <mxGeometry y="5" width="190" height="40" as="geometry" />
        </mxCell>
        <mxCell id="677b7b8949515195-3" value="Search" style="strokeWidth=1;shadow=0;dashed=0;align=center;html=1;shape=mxgraph.mockup.forms.searchBox;strokeColor=#999999;mainText=;strokeColor2=#008cff;fontColor=#666666;fontSize=17;align=left;spacingLeft=3;rounded=0;labelBackgroundColor=none;comic=1;" parent="1" vertex="1">
          <mxGeometry x="680" y="50" width="385" height="70" as="geometry" />
        </mxCell>
        <mxCell id="hyE2RU9J0_CmFcboUBjs-19" value="" style="verticalLabelPosition=bottom;verticalAlign=top;html=1;shape=mxgraph.basic.patternFillRect;fillStyle=diag;step=5;fillStrokeWidth=0.2;fillStrokeColor=#dddddd;" parent="1" vertex="1">
          <mxGeometry y="120" width="1100" height="730" as="geometry" />
        </mxCell>
        <mxCell id="B-K3i70VCUpERA3QXpkE-1" value="Home" style="rounded=1;whiteSpace=wrap;html=1;" vertex="1" parent="1">
          <mxGeometry x="680" width="120" height="50" as="geometry" />
        </mxCell>
        <mxCell id="B-K3i70VCUpERA3QXpkE-2" value="About" style="rounded=1;whiteSpace=wrap;html=1;" vertex="1" parent="1">
          <mxGeometry x="800" width="120" height="50" as="geometry" />
        </mxCell>
        <mxCell id="B-K3i70VCUpERA3QXpkE-4" value="" style="whiteSpace=wrap;html=1;aspect=fixed;" vertex="1" parent="1">
          <mxGeometry x="30" y="140" width="250" height="250" as="geometry" />
        </mxCell>
        <mxCell id="B-K3i70VCUpERA3QXpkE-7" value="" style="whiteSpace=wrap;html=1;aspect=fixed;" vertex="1" parent="1">
          <mxGeometry x="810" y="140" width="250" height="250" as="geometry" />
        </mxCell>
        <mxCell id="B-K3i70VCUpERA3QXpkE-8" value="" style="whiteSpace=wrap;html=1;aspect=fixed;" vertex="1" parent="1">
          <mxGeometry x="290" y="140" width="250" height="250" as="geometry" />
        </mxCell>
        <mxCell id="B-K3i70VCUpERA3QXpkE-9" value="" style="whiteSpace=wrap;html=1;aspect=fixed;" vertex="1" parent="1">
          <mxGeometry x="550" y="140" width="250" height="250" as="geometry" />
        </mxCell>
        <mxCell id="B-K3i70VCUpERA3QXpkE-10" value="Download" style="rounded=1;whiteSpace=wrap;html=1;" vertex="1" parent="1">
          <mxGeometry x="80" y="400" width="145" height="60" as="geometry" />
        </mxCell>
        <mxCell id="B-K3i70VCUpERA3QXpkE-11" value="Download" style="rounded=1;whiteSpace=wrap;html=1;" vertex="1" parent="1">
          <mxGeometry x="342.5" y="400" width="145" height="60" as="geometry" />
        </mxCell>
        <mxCell id="B-K3i70VCUpERA3QXpkE-12" value="Download" style="rounded=1;whiteSpace=wrap;html=1;" vertex="1" parent="1">
          <mxGeometry x="602.5" y="400" width="145" height="60" as="geometry" />
        </mxCell>
        <mxCell id="B-K3i70VCUpERA3QXpkE-13" value="Download" style="rounded=1;whiteSpace=wrap;html=1;" vertex="1" parent="1">
          <mxGeometry x="862.5" y="400" width="145" height="60" as="geometry" />
        </mxCell>
      </root>
    </mxGraphModel>
  </diagram>
</mxfile>
